<svg width="23" height="15" viewBox="0 0 23 15" fill="none" xmlns="http://www.w3.org/2000/svg">
<path d="M22.799 6.89893C20.7117 2.82619 16.5793 0.0706177 11.8476 0.0706177C7.11588 0.0706177 2.98233 2.82812 0.896112 6.89931C0.808061 7.07349 0.762184 7.26592 0.762184 7.46109C0.762184 7.65626 0.808061 7.84869 0.896112 8.02287C2.98348 12.0956 7.11588 14.8512 11.8476 14.8512C16.5793 14.8512 20.7128 12.0937 22.799 8.02248C22.8871 7.84831 22.933 7.65587 22.933 7.4607C22.933 7.26554 22.8871 7.0731 22.799 6.89893ZM11.8476 13.0036C10.7513 13.0036 9.67971 12.6785 8.76822 12.0695C7.85672 11.4605 7.1463 10.5948 6.72679 9.582C6.30727 8.5692 6.19751 7.45475 6.41137 6.37957C6.62524 5.30439 7.15313 4.31677 7.92829 3.54161C8.70345 2.76645 9.69107 2.23856 10.7663 2.02469C11.8414 1.81082 12.9559 1.92059 13.9687 2.3401C14.9815 2.75962 15.8471 3.47004 16.4562 4.38153C17.0652 5.29303 17.3903 6.36465 17.3903 7.4609C17.3906 8.18888 17.2475 8.90979 16.9691 9.58242C16.6907 10.2551 16.2824 10.8662 15.7677 11.381C15.2529 11.8957 14.6417 12.304 13.9691 12.5824C13.2965 12.8608 12.5756 13.004 11.8476 13.0036ZM11.8476 3.76576C11.5178 3.77036 11.1901 3.81943 10.8734 3.91164C11.1344 4.2664 11.2597 4.70297 11.2265 5.14218C11.1932 5.58138 11.0037 5.99414 10.6923 6.30559C10.3808 6.61704 9.96806 6.80656 9.52886 6.83979C9.08965 6.87302 8.65308 6.74774 8.29832 6.48669C8.09631 7.23095 8.13277 8.01982 8.40259 8.74226C8.6724 9.46471 9.16197 10.0844 9.8024 10.514C10.4428 10.9436 11.2019 11.1616 11.9727 11.1373C12.7435 11.1129 13.4872 10.8474 14.0993 10.3783C14.7113 9.90905 15.1608 9.25974 15.3845 8.5217C15.6081 7.78367 15.5947 6.99407 15.3461 6.26405C15.0976 5.53402 14.6263 4.90033 13.9987 4.45217C13.3711 4.00401 12.6188 3.76394 11.8476 3.76576Z" fill="white"/>
</svg>
